PathFileType	4	(X/Y/Z)	C:\Users\Basilio\Documents\Thesis Gigler\squatting_fais\c3dfiles\076\SLS_front_pre2\markers_experimental.trc
DataRate	CameraRate	NumFrames	NumMarkers	Units	OrigDataRate	OrigDataStartFrame	OrigNumFrames
200.000000	200.000000	4	61	mm	200.000000	598	1595
Frame#	Time	FHD			LBHD			RBHD			C7			T10			CLAV			LSHO			LUUPA			LMUPA			LDUPA			LLEP			LMEP			LRAD			LUL			LRFIN			RSHO			RUPA1			RMUPA			RDUPA			RLEP			RMEP			RRAD			RUL			RUFIN			LASI			RASI			USACR			LSACR			RSACR			LTHI1			LTHI2			LTHI3			LTHI4			LLFC			LMFC			LTIB1			LTIB2			LTIB3			LTIB4			LLMAL			LMMAL			LHEE			LMT1			LMT2			LMT5			RTHI			RTHI2			RTHI3			RTHI4			RLFC			RMFC			RTIB1			RTIB2			RTIB3			RTIB4			RLMAL			RMMAL			RHEE			RMT1			RMT2			RMT5			
		X1	Y1	Z1	X2	Y2	Z2	X3	Y3	Z3	X4	Y4	Z4	X5	Y5	Z5	X6	Y6	Z6	X7	Y7	Z7	X8	Y8	Z8	X9	Y9	Z9	X10	Y10	Z10	X11	Y11	Z11	X12	Y12	Z12	X13	Y13	Z13	X14	Y14	Z14	X15	Y15	Z15	X16	Y16	Z16	X17	Y17	Z17	X18	Y18	Z18	X19	Y19	Z19	X20	Y20	Z20	X21	Y21	Z21	X22	Y22	Z22	X23	Y23	Z23	X24	Y24	Z24	X25	Y25	Z25	X26	Y26	Z26	X27	Y27	Z27	X28	Y28	Z28	X29	Y29	Z29	X30	Y30	Z30	X31	Y31	Z31	X32	Y32	Z32	X33	Y33	Z33	X34	Y34	Z34	X35	Y35	Z35	X36	Y36	Z36	X37	Y37	Z37	X38	Y38	Z38	X39	Y39	Z39	X40	Y40	Z40	X41	Y41	Z41	X42	Y42	Z42	X43	Y43	Z43	X44	Y44	Z44	X45	Y45	Z45	X46	Y46	Z46	X47	Y47	Z47	X48	Y48	Z48	X49	Y49	Z49	X50	Y50	Z50	X51	Y51	Z51	X52	Y52	Z52	X53	Y53	Z53	X54	Y54	Z54	X55	Y55	Z55	X56	Y56	Z56	X57	Y57	Z57	X58	Y58	Z58	X59	Y59	Z59	X60	Y60	Z60	X61	Y61	Z61	

599	2.99	-294.1971130371094	1647.33056640625	-1043.206420898438	-426.4407348632814	1567.556274414063	-1141.600952148438	-414.9320373535157	1571.375	-990.1994628906252	-464.988250732422	1444.122680664063	-1061.052612304688	-488.8566284179689	1129.315795898438	-1064.016845703125	-331.3436584472657	1377.109130859375	-1066.676147460938	-389.9208068847657	1397.604370117188	-1225.184692382813	-237.6001739501954	1355.456787109375	-1295.51513671875	-206.427230834961	1375.744018554688	-1261.6484375	-170.6654052734375	1352.258544921875	-1305.1318359375	-121.0223007202149	1336.075073242188	-1315.086181640625	-112.311996459961	1276.863525390625	-1262.4521484375	126.1753616333008	1363.35693359375	-1274.480102539063	120.7652130126953	1362.208984375	-1339.380126953125	209.3403930664063	1380.753540039063	-1279.642333984375	-375.8037719726563	1397.0107421875	-909.9105224609377	-233.6062469482422	1340.288940429688	-828.3323974609377	-204.5251617431641	1374.591186523438	-848.5938720703127	-163.5799407958985	1335.001342773438	-826.8387451171877	-98.13577270507815	1341.006103515625	-831.5438232421877	-94.21154785156251	1295.052368164063	-892.0437622070315	145.1640167236328	1353.941650390625	-877.3643188476565	136.0643310546875	1348.85400390625	-811.775329589844	219.4639282226563	1371.838500976563	-867.3165283203127	-321.2252502441407	948.2873535156252	-1161.502197265625	-319.9300842285157	970.7573242187502	-945.298522949219	-490.3641967773439	1016.716491699219	-1054.111083984375	-496.0156250000001	985.1685791015627	-1078.556762695313	-496.9054565429689	988.5974731445315	-1022.180908203125	-395.535614013672	782.8248291015627	-1211.1240234375	-358.3570251464844	706.4474487304689	-1207.05322265625	-309.5059204101563	714.1121215820314	-1203.955322265625	-379.6900939941407	653.5299072265626	-1184.1552734375	-355.9570007324219	497.8355102539064	-1147.40869140625	-308.0569458007813	506.1643981933595	-1038.552612304688	-312.9054565429688	360.3973083496094	-1066.2939453125	-343.7363891601563	300.8545227050782	-1123.56103515625	-311.2044677734376	306.8097839355469	-1090.240234375	-323.4772949218751	235.1894836425782	-1046.938720703125	-386.1099243164064	105.4975738525391	-1077.474853515625	-353.5284729003907	127.7533111572266	-1002.396545410156	-441.8689575195314	96.57491302490237	-1027.091674804688	-239.850326538086	56.00399017333986	-1007.349243164063	-234.2391815185547	49.00861740112306	-1045.365234375	-257.4267272949219	40.93513107299805	-1094.910400390625	-270.5710449218751	750.5660400390626	-863.3636474609377	-207.2431182861329	730.7277832031251	-873.6669921875002	-185.2838745117188	752.0271606445314	-890.226013183594	-181.7929077148438	652.1042480468751	-883.4124755859377	-148.1052703857422	602.6491088867189	-887.291198730469	-142.9814147949219	596.9899902343751	-1004.122680664063	-40.87714385986329	510.7550659179689	-908.6067504882815	-49.15368270874025	409.5249938964845	-869.007507324219	-11.7406530380249	431.3728637695314	-887.632751464844	20.48339271545411	396.8974609375001	-921.435485839844	56.84875488281251	248.8564147949219	-874.9760742187502	53.36454391479494	265.6268920898438	-959.520935058594	25.15071487426759	188.41650390625	-907.8697509765627	190.4064025878907	298.4137573242188	-967.032653808594	195.8306884765626	314.5526428222657	-923.1718750000002	193.0134582519532	289.6076049804688	-866.0866699218752	
600	2.995	-293.8651733398438	1647.119384765625	-1043.41162109375	-426.3453063964845	1566.741943359375	-1141.780517578125	-414.6811523437501	1571.230224609375	-990.3715820312502	-464.772674560547	1444.07080078125	-1061.193969726563	-488.9322204589845	1129.263671875	-1064.03125	-331.1571655273438	1376.969360351563	-1066.85400390625	-389.8482666015626	1397.567749023438	-1225.513671875	-237.5608978271485	1355.397583007813	-1295.63330078125	-206.2458801269532	1375.57958984375	-1261.7939453125	-170.6766662597657	1352.238403320313	-1305.2998046875	-120.8723678588867	1335.968505859375	-1315.272827148438	-112.1031951904297	1276.845458984375	-1262.661254882813	126.4216918945313	1363.270629882813	-1274.702514648438	120.839340209961	1362.22265625	-1339.569091796875	209.4463348388672	1380.767333984375	-1279.710327148438	-375.5244445800782	1396.958129882813	-910.1032714843752	-233.3475341796876	1340.246948242188	-828.5362548828127	-204.215072631836	1374.512573242188	-848.7156372070315	-163.3744201660157	1334.84814453125	-826.9460449218752	-97.89288330078128	1340.849487304688	-831.5937500000002	-93.98278808593751	1294.89794921875	-892.1472167968752	145.3031768798828	1353.764892578125	-877.423034667969	136.2626953125	1348.645385742188	-811.978454589844	219.7016143798829	1371.69970703125	-867.421813964844	-321.5249023437501	948.192321777344	-1161.683959960938	-320.6279296875001	970.4009399414065	-945.865905761719	-490.6748962402345	1016.674133300781	-1054.055786132813	-496.3329467773439	985.1312255859377	-1078.4873046875	-497.2386779785157	988.4385986328127	-1022.0712890625	-395.7172851562501	782.6726684570315	-1211.076538085938	-358.3696594238282	706.3963012695314	-1207.180419921875	-309.6218261718751	714.1033325195314	-1204.161376953125	-379.6072082519532	653.4346923828126	-1184.334350585938	-355.4036560058594	497.7918090820314	-1147.638305664063	-307.5279235839844	506.1217041015626	-1038.805541992188	-312.8643493652344	360.4981994628907	-1066.7509765625	-343.4687194824219	300.7913513183594	-1123.663330078125	-310.7826232910157	306.7618408203126	-1090.325805664063	-323.5173645019532	235.1828155517579	-1047.299682617188	-386.2188720703126	105.5037994384766	-1077.513427734375	-353.4750366210938	127.7871398925782	-1002.552795410156	-441.8843688964845	96.55139923095706	-1027.078979492188	-239.7903594970704	56.14510726928712	-1007.411926269531	-234.1655883789063	48.98928451538087	-1045.386108398438	-257.3868408203126	40.86824798583985	-1094.890502929688	-270.5370788574219	750.7577514648439	-863.3530273437502	-207.1562042236329	731.0659179687501	-873.5820312500002	-185.0998992919922	752.4953002929689	-890.1423950195315	-181.5467529296875	652.4426269531251	-883.2673339843752	-147.6581115722657	603.3170776367189	-887.0840454101565	-142.5686645507813	597.4486694335939	-1003.887451171875	-40.3592758178711	511.4701538085939	-908.3347167968752	-48.42513275146486	410.2135009765626	-868.6198730468752	-10.9356918334961	432.2229003906251	-887.1275024414065	21.27642250061036	397.7079467773439	-921.0681152343752	57.76160812377931	249.7565917968751	-874.4905395507815	54.17103576660158	266.2817077636719	-959.1671142578127	26.00610733032227	189.0195465087891	-907.2729492187502	191.3230743408203	299.3126831054688	-966.8676757812502	196.4451446533204	315.6675720214844	-922.7662353515627	193.9489746093751	290.6902160644532	-865.680603027344	
601	3	-293.6904602050782	1647.11767578125	-1043.635131835938	-425.9656372070314	1566.7099609375	-1141.953979492188	-414.421356201172	1570.820434570313	-990.3621826171877	-464.496063232422	1444.059326171875	-1061.391845703125	-489.1451416015626	1129.185546875	-1064.010131835938	-330.9260559082032	1376.756958007813	-1067.0595703125	-389.4698791503907	1397.395874023438	-1225.461669921875	-237.3746337890626	1355.334716796875	-1295.807983398438	-206.0430450439454	1375.48486328125	-1261.910034179688	-170.507553100586	1352.186157226563	-1305.48876953125	-120.6331634521485	1335.955688476563	-1315.463500976563	-111.9288406372071	1276.745483398438	-1262.771118164063	126.6165618896485	1363.283081054688	-1274.912109375	120.9963607788086	1362.175415039063	-1339.76220703125	209.6341247558594	1380.79296875	-1279.9560546875	-375.2816772460938	1396.951538085938	-910.2858886718752	-233.1221618652344	1340.226318359375	-828.6791992187502	-203.9676818847657	1374.451049804688	-848.842712402344	-163.1396789550782	1334.820556640625	-827.0676879882815	-97.6039733886719	1340.765502929688	-831.8205566406252	-93.75925445556642	1294.767822265625	-892.2549438476565	145.5978698730469	1353.580078125	-877.4807128906252	136.5463104248047	1348.469360351563	-812.0874023437502	219.8848419189454	1371.50341796875	-867.6226806640627	-321.9530334472657	948.1091308593752	-1161.75390625	-320.8518371582032	970.3618774414065	-945.9429321289065	-490.979461669922	1016.66552734375	-1053.9501953125	-496.6331176757814	985.0841064453127	-1078.377075195313	-497.4634094238282	988.389831542969	-1021.961364746094	-395.3146972656251	782.2750244140627	-1210.990478515625	-358.4377746582032	706.2960205078126	-1207.3212890625	-309.6666259765626	714.1216430664064	-1204.42431640625	-379.6302490234376	653.3529052734376	-1184.469970703125	-354.9877319335938	497.7711486816407	-1147.82958984375	-307.0640869140626	506.1240539550782	-1038.995971679688	-312.0985412597657	360.1928710937501	-1066.72216796875	-343.2194519042969	300.6567993164063	-1123.770141601563	-310.5087890625001	306.6873168945313	-1090.54443359375	-323.0486145019532	235.0288848876954	-1047.22216796875	-386.1417236328126	105.4718551635742	-1077.55322265625	-353.3814697265626	127.8205337524414	-1002.639282226563	-441.9020080566407	96.5928649902344	-1027.143920898438	-239.8549041748047	56.16011047363283	-1007.479675292969	-234.1674041748047	48.97901916503908	-1045.401489257813	-257.4869995117188	40.90312957763673	-1094.931396484375	-270.4444885253907	751.0897827148439	-863.2852783203127	-206.9508361816407	731.6155395507814	-873.2816162109377	-185.0007019042969	752.9376831054689	-889.9989013671877	-181.1299133300782	652.9579467773439	-883.1043701171877	-147.1882476806641	603.8463134765626	-886.8831176757815	-142.1895599365235	597.9397583007814	-1003.710876464844	-39.74886703491212	512.1850585937501	-908.0391845703127	-47.71479797363282	410.9315490722657	-868.2958984375002	-10.38636875152588	433.1657714843751	-886.9326171875002	22.02906799316407	398.5548400878907	-920.7890625000002	58.71398544311525	250.5306854248047	-873.9448242187502	55.22651672363283	267.2044372558594	-958.530456542969	26.8563346862793	189.903305053711	-906.556579589844	193.4342803955079	300.0712890625001	-967.1402587890627	197.3334655761719	315.6261596679688	-922.621520996094	194.5807189941407	291.3072814941407	-865.5195922851565	
602	3.005	-293.3019409179688	1646.83837890625	-1043.809692382813	-425.7986450195314	1566.54248046875	-1142.272338867188	-414.2046508789064	1571.047119140625	-990.786560058594	-464.2780761718751	1443.9873046875	-1061.563842773438	-489.2468566894532	1129.208129882813	-1063.976196289063	-330.7281799316407	1376.617553710938	-1067.220581054688	-389.464324951172	1397.382934570313	-1225.889038085938	-237.2572326660157	1355.25439453125	-1295.937744140625	-205.8126373291016	1375.360717773438	-1262.068115234375	-170.3024139404297	1352.060913085938	-1305.638427734375	-120.4574356079102	1335.893432617188	-1315.633666992188	-111.7746658325196	1276.673706054688	-1262.930786132813	126.8735656738282	1363.279541015625	-1275.182373046875	121.1518096923828	1362.135620117188	-1339.914428710938	209.8920440673829	1380.759155273438	-1280.384399414063	-375.0170898437501	1396.883056640625	-910.4407958984377	-232.8771667480469	1340.107543945313	-828.8120117187502	-203.727523803711	1374.307006835938	-848.9944458007815	-162.8915557861328	1334.700561523438	-827.1865234375002	-97.36343383789065	1340.582641601563	-831.9888916015627	-93.53555297851564	1294.638427734375	-892.3032836914065	145.7582092285157	1353.48291015625	-877.6838989257815	136.7243804931641	1348.238159179688	-812.283386230469	220.1165771484376	1371.35888671875	-867.7453613281252	-322.3516845703126	948.0142211914065	-1161.823120117188	-321.0485839843751	970.3350219726565	-946.026794433594	-491.2326965332032	1016.606872558594	-1053.901000976563	-496.914764404297	985.0913085937502	-1078.35693359375	-497.7156372070314	988.3330078125002	-1021.846557617188	-395.468963623047	782.1812744140627	-1211.017211914063	-358.3684997558594	706.2129516601564	-1207.454345703125	-309.7281799316407	714.1364746093751	-1204.659423828125	-379.5615234375001	653.2343750000001	-1184.569091796875	-354.4818420410157	497.7207641601564	-1148.066162109375	-306.6504821777344	506.1700439453126	-1039.288208007813	-311.9648742675782	360.1997985839844	-1066.968383789063	-343.1297912597657	300.5502624511719	-1123.843017578125	-310.2388610839844	306.5776367187501	-1090.724609375	-322.8281860351563	234.9309387207032	-1047.405639648438	-386.2807006835939	105.4887084960938	-1077.646484375	-353.3116149902344	127.8364715576172	-1002.740600585938	-441.8989562988282	96.59848785400393	-1027.176513671875	-240.2449188232422	55.70831298828126	-1007.726867675781	-234.1251983642579	48.95726394653322	-1045.418090820313	-257.3618774414063	40.9094467163086	-1094.9296875	-270.3915405273438	751.3770751953126	-863.2330322265627	-206.8016204833985	732.0388793945314	-873.1818847656252	-184.9190673828125	753.2886352539064	-889.8880004882815	-180.9079742431641	653.3424682617189	-882.876403808594	-146.7598876953125	604.4453125000001	-886.729675292969	-141.5971374511719	598.4110107421876	-1003.478637695313	-39.05977630615235	513.0299682617189	-907.7629394531252	-46.93516159057618	411.9395141601564	-867.8409423828127	-9.492009162902834	433.480926513672	-886.6966552734377	22.7384147644043	399.2656555175782	-920.340270996094	59.69699478149415	251.6015014648438	-873.434997558594	56.09615325927736	267.9876403808594	-958.051208496094	28.04218864440919	190.9561462402344	-906.0620727539065	193.0863647460938	301.1711425781251	-966.1458129882815	198.3771514892579	317.2247009277344	-922.1413574218752	195.8262786865235	292.7335510253907	-864.984802246094	
